<svg width="750pt" height="750pt" version="1.2" viewBox="0 0 750 750" xmlns="http://www.w3.org/2000/svg"><g><path transform="matrix(1,0,0,-1,0,750)" d="m0 625c0 69 56 125 125 125h500c69 0 125-56 125-125v-500c0-69-56-125-125-125h-500c-69 0-125 56-125 125z" fill="#fff" fill-rule="evenodd" stroke="#bebebe" stroke-miterlimit="10" stroke-width="6"/><path d="m134 612h83.3v-510h-83.3z" fill="#003b64"/><path d="m275 102h151c70.2 0 121 10.2 152 30.7 31.3 20.4 46.9 52.8 46.9 96.9 0 29.8-7.67 54.5-23 74.3-15.3 19.8-37.4 32.2-66.2 37.3v3.49c35.8 6.74 62.1 20 79 39.9 16.9 19.9 25.3 46.8 25.3 80.7 0 45.8-16 81.6-47.9 108-32 25.9-76.4 38.9-133 38.9h-184zm83.3 211h80.2c34.9 0 60.3-5.52 76.4-16.6 16-11 24.1-29.8 24.1-56.3 0-23.9-8.66-41.2-26-51.9-17.3-10.7-44.8-16-82.5-16h-72.2zm0 67.6v161h88.6c34.9 0 61.2-6.69 79-20.1s26.7-34.5 26.7-63.3c0-26.5-9.07-46.1-27.2-58.9-18.1-12.8-45.7-19.2-82.6-19.2z" fill="#003b64"/></g></svg>
